<?xml version="1.0" standalone="no"?>
<!DOCTYPE svg PUBLIC "-//W3C//DTD SVG 20010904//EN"
 "http://www.w3.org/TR/2001/REC-SVG-20010904/DTD/svg10.dtd">
<svg version="1.0" xmlns="http://www.w3.org/2000/svg"
 width="2888.000000pt" height="1378.000000pt" viewBox="0 0 2888.000000 1378.000000"
 preserveAspectRatio="xMidYMid meet">

<g transform="translate(0.000000,1378.000000) scale(0.100000,-0.100000)"
fill="#ca0100" stroke="none">
<path d="M14040 13090 c0 -28 -3 -30 -35 -30 -32 0 -35 -2 -35 -30 0 -29 -2
-30 -45 -30 l-45 0 0 -70 0 -70 -70 0 -70 0 0 -30 c0 -27 -3 -30 -30 -30 -25
0 -30 -4 -30 -25 0 -24 -2 -25 -65 -25 l-65 0 0 -45 0 -45 -75 0 -75 0 0 -30
c0 -28 -3 -30 -35 -30 l-35 0 0 -60 0 -60 -35 0 -35 0 0 60 0 60 -250 0 -250
0 0 -25 c0 -22 -4 -25 -40 -25 -36 0 -40 3 -40 25 0 20 -5 25 -25 25 -21 0
-25 5 -25 30 l0 30 -70 0 -70 0 0 45 0 45 -40 0 c-36 0 -40 3 -40 25 0 22 -4
25 -35 25 -32 0 -35 2 -35 30 0 28 -3 30 -35 30 -32 0 -35 -2 -35 -30 l0 -30
-140 0 -140 0 0 -25 c0 -21 -5 -25 -30 -25 l-30 0 0 -100 0 -100 -45 0 -45 0
0 -70 0 -70 -30 0 c-27 0 -30 -3 -30 -30 0 -28 -2 -30 -40 -30 -39 0 -40 -1
-40 -35 0 -33 -2 -35 -35 -35 -33 0 -35 -2 -35 -35 0 -32 -2 -35 -30 -35 -25
0 -30 -4 -30 -25 0 -24 -2 -25 -70 -25 l-70 0 0 -35 c0 -33 -2 -35 -35 -35
-34 0 -35 -1 -35 -40 l0 -40 -110 0 -110 0 0 -25 0 -25 -175 0 -175 0 0 -35 0
-35 -100 0 -100 0 0 35 0 35 -75 0 c-73 0 -75 1 -75 25 0 21 -5 25 -30 25 -25
0 -30 -4 -30 -25 0 -22 -4 -25 -40 -25 -39 0 -40 -1 -40 -35 l0 -35 -70 0
c-68 0 -70 -1 -70 -25 0 -20 -5 -25 -25 -25 l-25 0 0 -200 0 -200 -40 0 -40 0
0 -75 0 -75 -35 0 -35 0 0 -55 0 -55 -35 0 c-35 0 -35 0 -35 -45 l0 -45 -45 0
c-41 0 -45 -2 -45 -25 0 -22 -4 -25 -35 -25 -32 0 -35 -2 -35 -30 0 -28 -3
-30 -35 -30 -34 0 -35 -1 -35 -40 0 -39 -1 -40 -35 -40 -31 0 -35 -3 -35 -25
0 -21 -5 -25 -30 -25 -27 0 -30 -3 -30 -30 l0 -30 -75 0 -75 0 0 -40 0 -40
-70 0 -70 0 0 -30 0 -30 -210 0 -210 0 0 -30 c0 -28 -3 -30 -35 -30 -33 0 -35
-2 -35 -35 0 -34 -1 -35 -40 -35 l-40 0 0 -65 0 -65 -30 0 c-28 0 -30 -3 -30
-35 0 -32 2 -35 30 -35 l30 0 0 -100 0 -100 40 0 40 0 0 -125 0 -125 -40 0
-40 0 0 -100 0 -100 -30 0 -30 0 0 -100 0 -100 -35 0 -35 0 0 -70 0 -70 -30 0
c-25 0 -30 -4 -30 -25 0 -22 -4 -25 -40 -25 -38 0 -40 -2 -40 -30 0 -27 -3
-30 -30 -30 -29 0 -30 -2 -30 -45 l0 -45 -40 0 c-36 0 -40 -2 -40 -25 0 -22
-4 -25 -35 -25 -32 0 -35 -2 -35 -30 l0 -30 280 0 280 0 0 30 c0 28 3 30 35
30 l35 0 0 70 0 70 40 0 40 0 0 55 0 55 35 0 35 0 0 70 0 70 40 0 40 0 0 70
c0 68 1 70 25 70 24 0 25 3 25 55 l0 55 40 0 c39 0 40 1 40 35 0 32 2 35 30
35 28 0 30 2 30 40 l0 40 40 0 40 0 0 60 0 60 30 0 c28 0 30 2 30 40 l0 40 40
0 c36 0 40 3 40 25 0 22 4 25 35 25 l35 0 0 65 0 65 30 0 c28 0 30 3 30 35 0
33 2 35 35 35 33 0 35 2 35 35 0 33 2 35 35 35 32 0 35 2 35 30 0 28 3 30 35
30 33 0 35 2 35 35 0 35 0 35 45 35 l45 0 0 95 0 95 35 0 35 0 0 70 0 70 75 0
75 0 0 -30 c0 -25 4 -30 25 -30 21 0 25 5 25 30 0 28 2 30 40 30 36 0 40 3 40
25 0 21 5 25 30 25 28 0 30 2 30 40 l0 40 40 0 c38 0 40 2 40 30 0 27 3 30 30
30 25 0 30 4 30 25 0 23 4 25 40 25 l40 0 0 45 0 45 65 0 65 0 0 30 c0 28 3
30 35 30 31 0 35 3 35 25 0 22 4 25 35 25 35 0 35 0 35 45 l0 45 80 0 80 0 0
30 c0 27 3 30 30 30 25 0 30 4 30 25 0 24 2 25 65 25 l65 0 0 35 0 35 70 0 70
0 0 40 0 40 40 0 c36 0 40 3 40 25 0 24 2 25 70 25 l70 0 0 35 0 35 65 0 65 0
0 40 0 40 105 0 105 0 0 25 c0 24 2 25 75 25 l75 0 0 35 0 35 65 0 c63 0 65 1
65 25 l0 25 110 0 110 0 0 40 0 40 105 0 105 0 0 35 0 35 140 0 140 0 0 25 0
25 180 0 180 0 0 35 0 35 245 0 245 0 0 35 0 35 500 0 500 0 0 -35 0 -35 170
0 170 0 0 35 c0 32 -2 35 -30 35 -27 0 -30 3 -30 30 0 29 -2 30 -45 30 l-45 0
0 70 0 70 -35 0 c-31 0 -35 3 -35 25 0 25 1 25 80 25 l80 0 0 30 0 30 -80 0
-80 0 0 45 c0 45 0 45 -35 45 -31 0 -35 3 -35 25 0 24 -2 25 -70 25 l-70 0 0
30 c0 27 -3 30 -30 30 -29 0 -30 2 -30 45 l0 45 -40 0 -40 0 0 55 0 55 -70 0
-70 0 0 -55 c0 -54 0 -55 -30 -55 l-30 0 0 85 0 85 -105 0 -105 0 0 -30z m0
-315 l0 -25 105 0 105 0 0 25 c0 21 5 25 30 25 25 0 30 -4 30 -25 0 -21 -5
-25 -30 -25 -29 0 -30 -2 -30 -45 0 -43 1 -45 30 -45 27 0 30 -3 30 -30 0 -27
-3 -30 -30 -30 -25 0 -30 -4 -30 -25 l0 -25 -140 0 -140 0 0 -35 c0 -35 0 -35
-45 -35 -45 0 -45 0 -45 -35 0 -32 -2 -35 -30 -35 l-30 0 0 70 0 70 -105 0
-105 0 0 25 0 25 180 0 180 0 0 100 0 100 35 0 c31 0 35 -3 35 -25z m-1210
-260 c0 -33 -2 -35 -35 -35 -33 0 -35 2 -35 35 0 33 2 35 35 35 33 0 35 -2 35
-35z m1700 0 c0 -34 -1 -35 -40 -35 -39 0 -40 1 -40 35 0 34 1 35 40 35 39 0
40 -1 40 -35z m-1130 -70 c0 -33 -2 -35 -35 -35 -33 0 -35 2 -35 35 0 33 2 35
35 35 33 0 35 -2 35 -35z m-2390 -920 c0 -32 -2 -35 -30 -35 -28 0 -30 3 -30
35 0 32 2 35 30 35 28 0 30 -3 30 -35z m-2040 -970 c0 -33 -2 -35 -35 -35 -33
0 -35 2 -35 35 0 33 2 35 35 35 33 0 35 -2 35 -35z m350 -400 c0 -34 -1 -35
-40 -35 -39 0 -40 1 -40 35 0 34 1 35 40 35 39 0 40 -1 40 -35z"/>
<path d="M16080 12830 c0 -28 -3 -30 -35 -30 -31 0 -35 -3 -35 -25 0 -25 -1
-25 -80 -25 l-80 0 0 -45 0 -45 -100 0 -100 0 0 -30 0 -30 -315 0 -315 0 0
-25 c0 -21 -5 -25 -30 -25 -28 0 -30 -3 -30 -35 0 -32 2 -35 30 -35 28 0 30
-3 30 -35 l0 -35 70 0 70 0 0 -100 0 -100 65 0 65 0 0 70 0 70 40 0 c39 0 40
-1 40 -35 0 -33 2 -35 35 -35 33 0 35 -2 35 -35 l0 -35 70 0 c68 0 70 -1 70
-25 l0 -25 135 0 135 0 0 -35 0 -35 115 0 115 0 0 -40 0 -40 40 0 40 0 0 40
c0 36 3 40 25 40 24 0 25 -2 25 -65 l0 -65 110 0 110 0 0 -35 0 -35 70 0 c68
0 70 -1 70 -25 l0 -25 100 0 100 0 0 125 0 125 -25 0 c-22 0 -25 4 -25 35 0
34 -1 35 -40 35 -36 0 -40 3 -40 25 0 22 -4 25 -35 25 l-35 0 0 70 0 70 35 0
c32 0 35 2 35 30 0 28 -3 30 -35 30 -32 0 -35 -2 -35 -30 0 -28 -3 -30 -35
-30 l-35 0 0 200 0 200 -75 0 c-73 0 -75 1 -75 25 0 25 0 25 -95 25 l-95 0 0
30 c0 28 -2 30 -40 30 -38 0 -40 -2 -40 -30z m-790 -315 c0 -32 -2 -35 -30
-35 -28 0 -30 -3 -30 -35 0 -32 2 -35 30 -35 27 0 30 -3 30 -30 0 -27 -3 -30
-30 -30 -27 0 -30 3 -30 30 0 28 -3 30 -35 30 -33 0 -35 2 -35 35 0 33 2 35
35 35 33 0 35 2 35 35 0 32 2 35 30 35 28 0 30 -3 30 -35z m290 0 c0 -33 -2
-35 -35 -35 -33 0 -35 -2 -35 -35 0 -33 -2 -35 -35 -35 -32 0 -35 -2 -35 -30
0 -28 -3 -30 -35 -30 l-35 0 0 65 0 65 35 0 c33 0 35 2 35 35 l0 35 70 0 70 0
0 -35z m210 -270 c0 -34 -1 -35 -40 -35 -39 0 -40 1 -40 35 0 34 1 35 40 35
39 0 40 -1 40 -35z"/>
<path d="M17060 11985 c0 -21 -5 -25 -30 -25 -28 0 -30 -3 -30 -35 0 -35 0
-35 -45 -35 l-45 0 0 -100 0 -100 75 0 c73 0 75 -1 75 -25 0 -22 4 -25 40 -25
l40 0 0 -40 0 -40 65 0 65 0 0 -35 0 -35 70 0 c68 0 70 -1 70 -25 0 -22 4 -25
35 -25 32 0 35 -2 35 -30 0 -28 2 -30 40 -30 38 0 40 2 40 30 0 27 3 30 30 30
l30 0 0 -75 0 -75 40 0 c36 0 40 -2 40 -25 0 -20 5 -25 25 -25 21 0 25 -5 25
-30 l0 -30 70 0 70 0 0 -45 0 -45 40 0 c36 0 40 -2 40 -25 0 -22 4 -25 40 -25
38 0 40 -2 40 -30 l0 -30 70 0 70 0 0 -65 0 -65 105 0 105 0 0 -30 c0 -28 -2
-30 -40 -30 l-40 0 0 -40 0 -40 40 0 c38 0 40 -2 40 -30 0 -27 3 -30 30 -30
27 0 30 -3 30 -30 0 -28 2 -30 40 -30 39 0 40 -1 40 -35 0 -32 2 -35 30 -35
28 0 30 -3 30 -35 0 -34 1 -35 40 -35 38 0 40 -2 40 -30 0 -25 4 -30 25 -30
22 0 25 -4 25 -35 0 -34 1 -35 40 -35 l40 0 0 -65 0 -65 35 0 c33 0 35 -2 35
-35 0 -33 2 -35 35 -35 31 0 35 -3 35 -25 0 -23 4 -25 45 -25 l45 0 0 -75 0
-75 35 0 c31 0 35 -3 35 -25 0 -22 4 -25 35 -25 l35 0 0 -75 0 -75 35 0 35 0
0 -55 c0 -54 0 -55 30 -55 28 0 30 -3 30 -35 0 -33 2 -35 35 -35 l35 0 0 -65
0 -65 40 0 40 0 0 -65 0 -65 30 0 30 0 0 -75 0 -75 40 0 40 0 0 -55 0 -55 315
0 315 0 0 30 c0 27 -3 30 -30 30 -25 0 -30 4 -30 25 0 23 -4 25 -40 25 l-40 0
0 45 c0 45 0 45 -35 45 -32 0 -35 2 -35 30 0 28 -2 30 -40 30 -36 0 -40 3 -40
25 0 22 -4 25 -35 25 -34 0 -35 1 -35 40 l0 40 -40 0 -40 0 0 65 c0 63 -1 65
-25 65 -25 0 -25 1 -25 90 l0 90 -40 0 -40 0 0 175 0 175 -30 0 -30 0 0 60 0
60 30 0 c27 0 30 3 30 30 0 28 2 30 40 30 l40 0 0 100 0 100 -40 0 c-39 0 -40
1 -40 35 l0 35 -140 0 -140 0 0 35 c0 34 1 35 40 35 38 0 40 2 40 30 l0 30
-175 0 -175 0 0 30 0 30 -80 0 -80 0 0 40 0 40 -110 0 -110 0 0 55 c0 52 -1
55 -25 55 -22 0 -25 4 -25 40 l0 40 -40 0 c-38 0 -40 2 -40 30 0 27 -3 30 -30
30 -25 0 -30 4 -30 25 0 23 -4 25 -40 25 l-40 0 0 45 c0 43 -1 45 -30 45 -30
0 -30 1 -30 55 l0 55 -40 0 -40 0 0 200 0 200 -35 0 -35 0 0 100 0 100 -65 0
-65 0 0 35 c0 33 -2 35 -35 35 -31 0 -35 3 -35 25 0 23 -4 25 -40 25 -36 0
-40 -2 -40 -25 0 -24 -2 -25 -70 -25 l-70 0 0 -60 0 -60 -40 0 c-36 0 -40 3
-40 25 l0 25 -170 0 -170 0 0 35 0 35 -100 0 -100 0 0 25 c0 24 -2 25 -75 25
-73 0 -75 -1 -75 -25z m910 -120 c0 -22 -4 -25 -40 -25 l-40 0 0 -40 c0 -38
-2 -40 -30 -40 -28 0 -30 2 -30 40 0 38 2 40 30 40 25 0 30 4 30 25 0 23 4 25
40 25 36 0 40 -2 40 -25z m-830 -65 l0 -40 -40 0 -40 0 0 40 0 40 40 0 40 0 0
-40z m910 -135 c0 -24 2 -25 70 -25 l70 0 0 -100 0 -100 30 0 30 0 0 -75 0
-75 -30 0 c-29 0 -30 2 -30 45 0 45 0 45 -35 45 l-35 0 0 90 0 90 -35 0 c-34
0 -35 1 -35 40 l0 40 -80 0 c-79 0 -80 0 -80 25 0 25 1 25 80 25 79 0 80 0 80
-25z m1550 -1835 l0 -40 -40 0 -40 0 0 40 0 40 40 0 40 0 0 -40z"/>
<path d="M13610 11925 l0 -35 -210 0 -210 0 0 -25 0 -25 -180 0 -180 0 0 -40
0 -40 -140 0 -140 0 0 -35 0 -35 -105 0 -105 0 0 -25 c0 -24 -2 -25 -70 -25
l-70 0 0 -40 0 -40 -105 0 -105 0 0 -35 0 -35 -75 0 c-73 0 -75 -1 -75 -25 0
-24 -2 -25 -70 -25 l-70 0 0 -30 0 -30 -65 0 -65 0 0 -45 0 -45 -70 0 c-68 0
-70 -1 -70 -25 0 -22 -4 -25 -35 -25 -32 0 -35 -2 -35 -30 l0 -30 -70 0 -70 0
0 -45 0 -45 -40 0 c-36 0 -40 -2 -40 -25 0 -24 -2 -25 -65 -25 l-65 0 0 -30
c0 -27 -3 -30 -30 -30 -28 0 -30 -2 -30 -40 l0 -40 -40 0 c-36 0 -40 -2 -40
-25 0 -24 -2 -25 -75 -25 l-75 0 0 -30 c0 -28 -3 -30 -35 -30 -34 0 -35 -1
-35 -40 0 -38 -2 -40 -30 -40 -27 0 -30 -3 -30 -30 0 -28 -3 -30 -35 -30 -32
0 -35 -2 -35 -30 0 -28 -2 -30 -40 -30 -39 0 -40 -1 -40 -35 0 -32 -2 -35 -30
-35 -28 0 -30 -3 -30 -35 0 -34 -1 -35 -40 -35 -38 0 -40 -2 -40 -30 0 -27 -3
-30 -30 -30 -28 0 -30 -3 -30 -35 0 -34 -1 -35 -40 -35 -39 0 -40 -1 -40 -35
0 -31 -3 -35 -25 -35 -21 0 -25 -5 -25 -30 0 -28 -2 -30 -40 -30 -39 0 -40 -1
-40 -35 0 -33 -2 -35 -35 -35 -31 0 -35 -3 -35 -25 0 -22 -4 -25 -35 -25 l-35
0 0 -75 0 -75 -45 0 c-41 0 -45 -2 -45 -25 0 -22 -4 -25 -35 -25 -34 0 -35 -1
-35 -40 0 -39 -1 -40 -35 -40 l-35 0 0 -60 0 -60 -35 0 c-32 0 -35 -2 -35 -30
0 -27 -3 -30 -30 -30 l-30 0 0 -70 0 -70 -35 0 -35 0 0 -70 0 -70 -40 0 -40 0
0 -55 c0 -54 0 -55 -30 -55 l-30 0 0 -70 0 -70 70 0 c68 0 70 1 70 25 0 22 4
25 35 25 35 0 35 0 35 45 0 43 1 45 30 45 27 0 30 3 30 30 0 28 3 30 35 30 31
0 35 3 35 25 0 22 4 25 35 25 l35 0 0 70 0 70 35 0 35 0 0 70 0 70 45 0 c43 0
45 1 45 30 0 28 3 30 35 30 31 0 35 3 35 25 0 22 4 25 35 25 l35 0 0 75 0 75
40 0 c36 0 40 3 40 25 0 20 5 25 25 25 22 0 25 4 25 35 0 34 1 35 40 35 l40 0
0 40 c0 38 2 40 30 40 25 0 30 4 30 25 0 23 4 25 40 25 39 0 40 1 40 35 0 32
2 35 30 35 27 0 30 3 30 30 0 28 2 30 40 30 39 0 40 1 40 35 0 33 2 35 35 35
33 0 35 2 35 35 0 32 2 35 30 35 27 0 30 3 30 30 0 28 3 30 35 30 33 0 35 2
35 35 0 33 2 35 35 35 33 0 35 2 35 35 0 34 1 35 40 35 38 0 40 2 40 30 0 28
2 30 40 30 38 0 40 2 40 30 l0 30 70 0 70 0 0 40 c0 36 3 40 25 40 21 0 25 5
25 30 0 28 2 30 40 30 36 0 40 3 40 25 0 24 2 25 70 25 l70 0 0 40 c0 39 1 40
35 40 32 0 35 2 35 30 l0 30 70 0 c68 0 70 1 70 25 0 24 2 25 65 25 l65 0 0
45 0 45 70 0 70 0 0 30 0 30 75 0 c73 0 75 1 75 25 0 24 2 25 65 25 l65 0 0
45 0 45 75 0 75 0 0 30 0 30 110 0 110 0 0 25 c0 25 0 25 95 25 l95 0 0 35 0
35 155 0 155 0 0 40 0 40 170 0 170 0 0 25 0 25 320 0 320 0 0 35 0 35 210 0
210 0 0 -35 0 -35 355 0 355 0 0 -25 0 -25 170 0 170 0 0 -40 0 -40 105 0 105
0 0 -35 0 -35 100 0 100 0 0 -25 0 -25 115 0 115 0 0 -30 0 -30 105 0 105 0 0
-45 0 -45 70 0 c68 0 70 -1 70 -25 0 -24 2 -25 70 -25 l70 0 0 -30 0 -30 75 0
75 0 0 -45 0 -45 65 0 c63 0 65 -1 65 -25 0 -21 5 -25 30 -25 27 0 30 -3 30
-30 l0 -30 75 0 75 0 0 -40 0 -40 40 0 c36 0 40 -2 40 -25 0 -24 2 -25 65 -25
l65 0 0 -30 c0 -28 3 -30 35 -30 34 0 35 -1 35 -40 0 -39 1 -40 35 -40 32 0
35 -2 35 -30 l0 -30 75 0 75 0 0 -30 c0 -27 3 -30 30 -30 28 0 30 -3 30 -35 0
-34 1 -35 40 -35 39 0 40 -1 40 -35 0 -31 3 -35 25 -35 21 0 25 -5 25 -30 0
-28 2 -30 40 -30 39 0 40 -1 40 -35 0 -32 2 -35 30 -35 28 0 30 -3 30 -35 0
-34 1 -35 40 -35 38 0 40 -2 40 -30 0 -28 2 -30 40 -30 39 0 40 -1 40 -35 0
-33 2 -35 35 -35 31 0 35 -3 35 -25 0 -22 4 -25 35 -25 34 0 35 -1 35 -40 0
-38 2 -40 30 -40 28 0 30 -3 30 -35 0 -33 2 -35 35 -35 l35 0 0 -65 0 -65 40
0 c39 0 40 -1 40 -35 0 -32 2 -35 30 -35 25 0 30 -4 30 -25 0 -22 4 -25 40
-25 l40 0 0 -65 0 -65 30 0 c28 0 30 -3 30 -35 0 -34 1 -35 40 -35 l40 0 0
-70 c0 -68 1 -70 25 -70 24 0 25 -3 25 -55 l0 -55 40 0 40 0 0 -70 0 -70 35 0
c32 0 35 -2 35 -30 0 -28 3 -30 35 -30 31 0 35 -3 35 -25 0 -25 1 -25 80 -25
79 0 80 0 80 25 0 22 4 25 35 25 32 0 35 2 35 30 0 28 -3 30 -35 30 l-35 0 0
70 0 70 -35 0 -35 0 0 55 0 55 -45 0 -45 0 0 70 0 70 -35 0 c-33 0 -35 2 -35
35 0 33 -2 35 -35 35 l-35 0 0 65 0 65 -40 0 -40 0 0 60 c0 57 -1 60 -25 60
-22 0 -25 4 -25 40 l0 40 -40 0 c-36 0 -40 3 -40 25 0 21 -5 25 -30 25 -28 0
-30 3 -30 35 0 34 -1 35 -40 35 l-40 0 0 65 0 65 -30 0 c-28 0 -30 3 -30 35 0
34 -1 35 -40 35 -38 0 -40 2 -40 30 0 28 -3 30 -35 30 -33 0 -35 2 -35 35 0
32 -2 35 -30 35 -28 0 -30 3 -30 35 0 33 -2 35 -35 35 -32 0 -35 2 -35 30 0
28 -3 30 -35 30 -33 0 -35 2 -35 35 0 34 -1 35 -40 35 -39 0 -40 1 -40 35 0
34 -1 35 -40 35 -38 0 -40 2 -40 30 0 27 -3 30 -30 30 -27 0 -30 3 -30 30 0
28 -2 30 -40 30 l-40 0 0 40 c0 36 -2 40 -25 40 -21 0 -25 5 -25 30 l0 30 -70
0 c-68 0 -70 1 -70 25 0 23 -4 25 -40 25 l-40 0 0 40 c0 39 -1 40 -35 40 -32
0 -35 2 -35 30 l0 30 -70 0 c-68 0 -70 1 -70 25 0 21 -5 25 -30 25 -29 0 -30
2 -30 45 l0 45 -75 0 -75 0 0 30 0 30 -75 0 c-73 0 -75 1 -75 25 0 21 -5 25
-30 25 -29 0 -30 2 -30 45 l0 45 -65 0 -65 0 0 30 0 30 -110 0 -110 0 0 25 c0
24 -2 25 -75 25 l-75 0 0 35 0 35 -70 0 -70 0 0 40 0 40 -100 0 -100 0 0 25 0
25 -110 0 -110 0 0 35 0 35 -140 0 -140 0 0 40 0 40 -140 0 -140 0 0 25 0 25
-215 0 -215 0 0 35 0 35 -595 0 -595 0 0 -35z"/>
<path d="M13550 11410 l0 -30 -210 0 -210 0 0 -45 0 -45 -150 0 -150 0 0 -25
0 -25 -100 0 -100 0 0 -30 0 -30 -110 0 -110 0 0 -45 0 -45 -70 0 c-68 0 -70
-1 -70 -25 0 -24 -2 -25 -75 -25 l-75 0 0 -30 0 -30 -95 0 -95 0 0 -40 0 -40
-45 0 c-41 0 -45 -2 -45 -25 0 -24 -2 -25 -70 -25 l-70 0 0 -30 0 -30 -65 0
-65 0 0 -40 c0 -39 -1 -40 -35 -40 -32 0 -35 -2 -35 -30 l0 -30 -70 0 -70 0 0
-30 c0 -28 -2 -30 -40 -30 -39 0 -40 -1 -40 -35 0 -32 -2 -35 -30 -35 -28 0
-30 -3 -30 -35 l0 -35 -65 0 -65 0 0 -30 c0 -28 -2 -30 -40 -30 -39 0 -40 -1
-40 -35 0 -32 -2 -35 -30 -35 -28 0 -30 -3 -30 -35 0 -34 -1 -35 -40 -35 -38
0 -40 -2 -40 -30 0 -28 -2 -30 -40 -30 -39 0 -40 -1 -40 -35 0 -33 -2 -35 -35
-35 -31 0 -35 -3 -35 -25 0 -22 -4 -25 -35 -25 -34 0 -35 -1 -35 -40 0 -38 -2
-40 -30 -40 -28 0 -30 -3 -30 -35 0 -33 -2 -35 -35 -35 -31 0 -35 -3 -35 -25
0 -22 -4 -25 -40 -25 l-40 0 0 -40 c0 -38 -2 -40 -30 -40 -28 0 -30 -3 -30
-35 0 -34 -1 -35 -40 -35 -36 0 -40 -2 -40 -25 0 -21 -5 -25 -30 -25 l-30 0 0
-65 0 -65 -40 0 c-39 0 -40 -1 -40 -35 0 -31 -3 -35 -25 -35 -24 0 -25 -2 -25
-70 l0 -70 -40 0 c-36 0 -40 -2 -40 -25 0 -22 -4 -25 -35 -25 l-35 0 0 -75 0
-75 -35 0 -35 0 0 -55 0 -55 870 0 870 0 0 30 c0 28 3 30 35 30 31 0 35 3 35
25 0 23 4 25 40 25 l40 0 0 45 c0 43 1 45 30 45 27 0 30 3 30 30 0 29 2 30 45
30 41 0 45 2 45 25 0 24 2 25 70 25 l70 0 0 40 c0 36 3 40 25 40 21 0 25 5 25
30 0 28 2 30 40 30 39 0 40 1 40 35 l0 35 70 0 70 0 0 35 c0 33 2 35 35 35 32
0 35 2 35 30 l0 30 70 0 c68 0 70 1 70 25 0 24 2 25 65 25 l65 0 0 35 0 35 75
0 75 0 0 40 0 40 110 0 110 0 0 25 0 25 105 0 105 0 0 35 0 35 175 0 175 0 0
40 0 40 595 0 595 0 0 -40 0 -40 150 0 150 0 0 -35 0 -35 95 0 c95 0 95 0 95
-25 l0 -25 110 0 110 0 0 -40 0 -40 70 0 70 0 0 -35 0 -35 70 0 c68 0 70 -1
70 -25 0 -24 2 -25 70 -25 l70 0 0 -30 0 -30 75 0 75 0 0 -35 c0 -34 1 -35 40
-35 39 0 40 -1 40 -35 l0 -35 65 0 65 0 0 -30 c0 -27 3 -30 30 -30 28 0 30 -2
30 -40 l0 -40 40 0 c36 0 40 -2 40 -25 0 -22 4 -25 35 -25 32 0 35 -2 35 -30
l0 -30 70 0 70 0 0 -70 0 -70 40 0 c38 0 40 -2 40 -30 l0 -30 910 0 910 0 0
30 c0 28 -2 30 -40 30 l-40 0 0 70 0 70 -30 0 c-30 0 -30 1 -30 55 l0 55 -40
0 -40 0 0 40 c0 39 -1 40 -35 40 l-35 0 0 65 0 65 -30 0 c-28 0 -30 3 -30 35
0 33 -2 35 -35 35 -32 0 -35 2 -35 30 0 28 -3 30 -35 30 -31 0 -35 3 -35 25 0
23 -4 25 -40 25 l-40 0 0 75 0 75 -40 0 c-36 0 -40 3 -40 25 0 21 -5 25 -30
25 -28 0 -30 3 -30 35 0 34 -1 35 -40 35 l-40 0 0 40 c0 36 -2 40 -25 40 -20
0 -25 5 -25 25 0 23 -4 25 -40 25 -39 0 -40 1 -40 35 0 32 -2 35 -30 35 -27 0
-30 3 -30 30 0 28 -2 30 -40 30 -39 0 -40 1 -40 35 0 33 -2 35 -35 35 -33 0
-35 2 -35 35 l0 35 -70 0 -70 0 0 30 c0 27 -3 30 -30 30 -28 0 -30 3 -30 35 0
33 -2 35 -35 35 -33 0 -35 2 -35 35 0 34 -1 35 -40 35 -38 0 -40 2 -40 30 l0
30 -75 0 -75 0 0 30 0 30 -70 0 -70 0 0 40 c0 36 -2 40 -25 40 -21 0 -25 5
-25 30 l0 30 -75 0 c-73 0 -75 1 -75 25 0 24 -2 25 -70 25 l-70 0 0 40 0 40
-70 0 -70 0 0 30 0 30 -65 0 c-63 0 -65 1 -65 25 l0 25 -115 0 -115 0 0 45 0
45 -110 0 -110 0 0 30 0 30 -100 0 -100 0 0 25 0 25 -140 0 -140 0 0 45 0 45
-215 0 -215 0 0 30 0 30 -625 0 -625 0 0 -30z"/>
<path d="M13680 9640 l0 -30 -175 0 -175 0 0 -35 0 -35 -70 0 -70 0 0 -35 0
-35 -100 0 -100 0 0 -30 0 -30 -80 0 -80 0 0 -40 0 -40 -75 0 -75 0 0 -55 0
-55 -95 0 -95 0 0 -45 0 -45 -40 0 c-36 0 -40 -2 -40 -25 0 -24 -2 -25 -70
-25 l-70 0 0 -30 0 -30 140 0 140 0 0 -25 0 -25 745 0 745 0 0 25 c0 22 4 25
35 25 31 0 35 -3 35 -25 l0 -25 240 0 240 0 0 25 c0 23 4 25 45 25 41 0 45 -2
45 -25 l0 -25 665 0 665 0 0 55 0 55 -40 0 -40 0 0 70 0 70 -70 0 -70 0 0 30
c0 28 -2 30 -40 30 -36 0 -40 3 -40 25 0 24 -2 25 -65 25 l-65 0 0 40 0 40
-70 0 -70 0 0 30 0 30 -75 0 -75 0 0 35 0 35 -95 0 -95 0 0 35 0 35 -150 0
-150 0 0 30 0 30 -560 0 -560 0 0 -30z m710 -200 c0 -28 -2 -30 -40 -30 -38 0
-40 2 -40 30 0 28 2 30 40 30 38 0 40 -2 40 -30z m0 -165 l0 -55 70 0 70 0 0
-45 c0 -43 1 -45 30 -45 25 0 30 -4 30 -25 0 -21 -5 -25 -30 -25 -25 0 -30 4
-30 25 0 24 -2 25 -70 25 -68 0 -70 -1 -70 -25 0 -24 -2 -25 -70 -25 -68 0
-70 1 -70 25 0 23 -4 25 -45 25 l-45 0 0 75 0 75 45 0 c41 0 45 2 45 25 0 24
2 25 70 25 l70 0 0 -55z"/>
<path d="M6500 8590 l0 -30 -70 0 -70 0 0 -30 c0 -28 -3 -30 -35 -30 l-35 0 0
-70 0 -70 -35 0 c-32 0 -35 -2 -35 -30 l0 -30 105 0 105 0 0 30 0 30 7850 0
7850 0 0 30 c0 27 -3 30 -30 30 -28 0 -30 2 -30 40 l0 40 -45 0 -45 0 0 60 0
60 -6750 0 -6750 0 0 -30 c0 -28 -2 -30 -40 -30 -38 0 -40 2 -40 30 l0 30 -70
0 -70 0 0 -30 c0 -28 -3 -30 -35 -30 -32 0 -35 2 -35 30 0 28 -3 30 -35 30
-32 0 -35 -2 -35 -30 0 -27 -3 -30 -30 -30 -27 0 -30 -3 -30 -30 0 -28 -3 -30
-35 -30 l-35 0 0 60 0 60 -75 0 -75 0 0 -30 c0 -28 2 -30 40 -30 38 0 40 -2
40 -30 l0 -30 -115 0 -115 0 0 30 c0 28 2 30 40 30 38 0 40 2 40 30 l0 30
-635 0 -635 0 0 -30z"/>
<path d="M6220 7540 l0 -30 -100 0 -100 0 0 -70 0 -70 -40 0 -40 0 0 -55 c0
-54 0 -55 -30 -55 l-30 0 0 -100 0 -100 -40 0 -40 0 0 -75 0 -75 -40 0 -40 0
0 -90 0 -90 -35 0 -35 0 0 -100 0 -100 -35 0 -35 0 0 -130 0 -130 -25 0 c-25
0 -25 -1 -25 -90 l0 -90 -40 0 -40 0 0 -45 0 -45 245 0 245 0 0 105 0 105 40
0 c38 0 40 2 40 30 l0 30 170 0 170 0 0 -135 0 -135 35 0 c32 0 35 -2 35 -30
l0 -30 170 0 170 0 0 30 c0 29 2 30 45 30 l45 0 0 70 0 70 -45 0 -45 0 0 195
0 195 -30 0 -30 0 0 190 0 190 -40 0 -40 0 0 145 0 145 -30 0 -30 0 0 130 0
130 -35 0 c-31 0 -35 3 -35 25 0 24 -2 25 -70 25 l-70 0 0 30 0 30 -70 0 -70
0 0 -30z m70 -755 l0 -125 -70 0 -70 0 0 125 0 125 70 0 70 0 0 -125z m-220
-90 c0 -31 -3 -35 -25 -35 -22 0 -25 4 -25 35 0 31 3 35 25 35 22 0 25 -4 25
-35z m500 0 l0 -35 -70 0 -70 0 0 35 0 35 70 0 70 0 0 -35z m60 -420 l0 -65
40 0 40 0 0 -60 0 -60 -40 0 c-36 0 -40 3 -40 25 0 21 -5 25 -30 25 -28 0 -30
3 -30 35 0 33 -2 35 -35 35 -32 0 -35 2 -35 30 0 28 3 30 35 30 33 0 35 2 35
35 0 32 2 35 30 35 l30 0 0 -65z"/>
<path d="M9100 7540 l0 -30 -380 0 -380 0 0 -200 0 -200 135 0 135 0 0 45 c0
43 1 45 30 45 l30 0 0 -365 0 -365 40 0 40 0 0 -165 0 -165 -40 0 -40 0 0
-100 0 -100 150 0 150 0 0 30 0 30 65 0 65 0 0 45 c0 41 -2 45 -25 45 -24 0
-25 3 -25 60 0 57 1 60 25 60 21 0 25 5 25 30 0 25 -4 30 -25 30 -22 0 -25 4
-25 35 0 31 3 35 25 35 l25 0 0 430 0 430 140 0 140 0 0 30 0 30 75 0 75 0 0
125 0 125 -35 0 c-32 0 -35 2 -35 30 l0 30 -180 0 -180 0 0 -30z"/>
<path d="M10030 7540 c0 -28 -3 -30 -35 -30 -31 0 -35 -3 -35 -25 0 -22 -4
-25 -35 -25 -35 0 -35 0 -35 -45 l0 -45 -45 0 c-43 0 -45 -1 -45 -30 0 -28 -3
-30 -35 -30 l-35 0 0 -55 0 -55 -35 0 -35 0 0 -170 0 -170 -35 0 -35 0 0 -225
0 -225 35 0 35 0 0 -70 0 -70 35 0 35 0 0 -65 0 -65 35 0 c31 0 35 -3 35 -25
0 -23 4 -25 45 -25 l45 0 0 -45 0 -45 70 0 70 0 0 -30 0 -30 105 0 105 0 0 30
0 30 70 0 70 0 0 45 0 45 70 0 c68 0 70 1 70 25 0 22 4 25 35 25 l35 0 0 65 0
65 30 0 30 0 0 70 0 70 35 0 c32 0 35 2 35 30 0 28 -3 30 -35 30 -32 0 -35 2
-35 30 0 28 3 30 35 30 l35 0 0 65 0 65 -35 0 c-33 0 -35 2 -35 35 l0 35 70 0
70 0 0 190 0 190 -35 0 -35 0 0 100 0 100 -35 0 -35 0 0 75 0 75 -30 0 c-25 0
-30 4 -30 25 0 24 -2 25 -75 25 l-75 0 0 30 0 30 -205 0 -205 0 0 -30z m350
-55 c0 -22 -4 -25 -40 -25 -36 0 -40 3 -40 25 0 23 4 25 40 25 36 0 40 -2 40
-25z m0 -460 l0 -235 30 0 c27 0 30 -3 30 -30 0 -27 -3 -30 -30 -30 l-30 0 0
-70 0 -70 -40 0 -40 0 0 -90 0 -90 -30 0 c-28 0 -30 -3 -30 -35 l0 -35 -65 0
-65 0 0 35 c0 34 -1 35 -40 35 l-40 0 0 250 0 250 40 0 40 0 0 145 0 145 25 0
c21 0 25 5 25 30 l0 30 110 0 110 0 0 -235z m210 -525 c0 -28 -3 -30 -35 -30
-32 0 -35 2 -35 30 0 28 3 30 35 30 32 0 35 -2 35 -30z m-560 -260 c0 -28 -3
-30 -35 -30 -32 0 -35 2 -35 30 0 28 3 30 35 30 32 0 35 -2 35 -30z"/>
<path d="M11840 7540 l0 -30 -70 0 -70 0 0 -360 0 -360 -35 0 -35 0 0 -425 0
-425 220 0 220 0 0 75 c0 73 1 75 25 75 24 0 25 3 25 60 l0 60 40 0 40 0 0 65
0 65 35 0 35 0 0 95 0 95 35 0 35 0 0 65 0 65 35 0 35 0 0 -360 0 -360 210 0
210 0 0 530 0 530 40 0 40 0 0 230 0 230 -40 0 c-36 0 -40 3 -40 25 0 22 -4
25 -35 25 -32 0 -35 2 -35 30 l0 30 -135 0 -135 0 0 -55 0 -55 -40 0 -40 0 0
-75 0 -75 -35 0 c-31 0 -35 -3 -35 -25 0 -22 -4 -25 -35 -25 l-35 0 0 -75 0
-75 -35 0 -35 0 0 -100 0 -100 -40 0 c-36 0 -40 -2 -40 -25 0 -20 -5 -25 -25
-25 l-25 0 0 255 0 255 25 0 c23 0 25 4 25 45 l0 45 -65 0 c-63 0 -65 1 -65
25 0 23 4 25 40 25 38 0 40 2 40 30 l0 30 -115 0 -115 0 0 -30z"/>
<path d="M15440 7540 l0 -30 -75 0 c-73 0 -75 -1 -75 -25 0 -24 -2 -25 -65
-25 l-65 0 0 -75 0 -75 -30 0 -30 0 0 -225 0 -225 30 0 30 0 0 -65 0 -65 35 0
c33 0 35 -2 35 -35 0 -32 2 -35 30 -35 l30 0 0 -65 0 -65 -30 0 -30 0 0 -60 0
-60 -35 0 c-33 0 -35 -2 -35 -35 0 -32 -2 -35 -30 -35 l-30 0 0 -65 0 -65 -40
0 -40 0 0 -60 0 -60 40 0 40 0 0 -45 0 -45 65 0 65 0 0 -30 0 -30 70 0 70 0 0
75 0 75 35 0 35 0 0 60 0 60 35 0 35 0 0 65 0 65 35 0 c33 0 35 2 35 35 0 33
2 35 35 35 l35 0 0 60 0 60 100 0 100 0 0 -195 0 -195 -30 0 -30 0 0 -70 0
-70 30 0 c27 0 30 -3 30 -30 l0 -30 155 0 155 0 0 30 c0 25 4 30 25 30 l25 0
0 395 0 395 40 0 40 0 0 390 0 390 -425 0 -425 0 0 -30z m0 -255 c0 -22 -4
-25 -35 -25 -31 0 -35 3 -35 25 0 22 4 25 35 25 31 0 35 -3 35 -25z m410 -125
l0 -100 40 0 40 0 0 -75 0 -75 -70 0 c-68 0 -70 -1 -70 -25 0 -22 -4 -25 -40
-25 -36 0 -40 3 -40 25 l0 25 -100 0 -100 0 0 145 0 145 70 0 70 0 0 30 0 30
100 0 100 0 0 -100z m-690 -1045 c0 -21 -5 -25 -30 -25 -25 0 -30 4 -30 25 0
21 5 25 30 25 25 0 30 -4 30 -25z"/>
<path d="M17340 7540 l0 -30 -420 0 -420 0 0 -325 0 -325 -35 0 -35 0 0 -460
0 -460 145 0 145 0 0 30 0 30 65 0 65 0 0 395 0 395 30 0 30 0 0 160 0 160 75
0 75 0 0 45 0 45 105 0 105 0 0 -395 0 -395 35 0 35 0 0 -70 0 -70 -35 0 c-32
0 -35 -2 -35 -30 0 -28 3 -30 35 -30 33 0 35 -2 35 -35 0 -33 2 -35 35 -35 31
0 35 -3 35 -25 0 -24 -2 -25 -70 -25 l-70 0 0 -75 0 -75 105 0 105 0 0 30 0
30 70 0 70 0 0 235 0 235 40 0 40 0 0 495 0 495 -40 0 c-36 0 -40 3 -40 25 0
21 -5 25 -30 25 -27 0 -30 3 -30 30 l0 30 -110 0 -110 0 0 -30z"/>
<path d="M18250 7540 l0 -30 -65 0 c-63 0 -65 -1 -65 -25 0 -22 -4 -25 -35
-25 -35 0 -35 0 -35 -45 l0 -45 -40 0 -40 0 0 -55 0 -55 -40 0 -40 0 0 -100 0
-100 -30 0 -30 0 0 -395 0 -395 30 0 30 0 0 -65 0 -65 40 0 c36 0 40 -2 40
-25 0 -22 4 -25 40 -25 l40 0 0 -45 0 -45 100 0 100 0 0 -30 0 -30 75 0 75 0
0 30 0 30 100 0 100 0 0 45 0 45 40 0 c36 0 40 3 40 25 0 20 5 25 25 25 22 0
25 4 25 35 0 34 1 35 40 35 l40 0 0 65 0 65 35 0 35 0 0 65 0 65 -35 0 c-32 0
-35 2 -35 30 l0 30 70 0 70 0 0 365 0 365 -35 0 -35 0 0 55 0 55 -35 0 c-35 0
-35 0 -35 45 l0 45 -40 0 c-36 0 -40 3 -40 25 0 24 -2 25 -65 25 l-65 0 0 30
0 30 -175 0 -175 0 0 -30z m290 -380 l0 -100 30 0 c27 0 30 -3 30 -30 0 -27
-3 -30 -30 -30 -29 0 -30 -2 -30 -45 0 -43 1 -45 30 -45 l30 0 0 -90 0 -90
-30 0 -30 0 0 -130 0 -130 -40 0 -40 0 0 -65 0 -65 -105 0 -105 0 0 65 0 65
-30 0 -30 0 0 130 0 130 30 0 30 0 0 190 0 190 35 0 35 0 0 75 0 75 110 0 110
0 0 -100z m340 -465 c0 -33 -2 -35 -35 -35 -33 0 -35 2 -35 35 0 33 2 35 35
35 33 0 35 -2 35 -35z m-150 -195 c0 -25 -4 -30 -25 -30 -21 0 -25 5 -25 30 0
25 4 30 25 30 21 0 25 -5 25 -30z m-540 -260 c0 -28 -3 -30 -35 -30 -32 0 -35
2 -35 30 0 28 3 30 35 30 32 0 35 -2 35 -30z"/>
<path d="M19180 7240 l0 -330 -35 0 -35 0 0 -485 0 -485 135 0 135 0 0 30 0
30 70 0 70 0 0 295 0 295 110 0 110 0 0 35 0 35 65 0 65 0 0 -330 0 -330 215
0 215 0 0 655 0 655 30 0 30 0 0 130 0 130 -210 0 -210 0 0 -185 0 -185 -35 0
-35 0 0 -100 0 -100 -175 0 -175 0 0 130 0 130 40 0 40 0 0 155 0 155 -210 0
-210 0 0 -330z m340 245 c0 -24 -2 -25 -70 -25 -68 0 -70 1 -70 25 0 24 2 25
70 25 68 0 70 -1 70 -25z"/>
<path d="M20720 7540 l0 -30 -70 0 -70 0 0 -125 0 -125 -40 0 -40 0 0 -525 0
-525 -30 0 -30 0 0 -105 0 -105 30 0 c27 0 30 -3 30 -30 l0 -30 175 0 175 0 0
30 c0 28 3 30 35 30 l35 0 0 70 0 70 40 0 40 0 0 65 0 65 35 0 35 0 0 70 0 70
40 0 40 0 0 90 0 90 30 0 c28 0 30 3 30 35 0 34 1 35 40 35 l40 0 0 -225 0
-225 -40 0 -40 0 0 -105 0 -105 40 0 c38 0 40 -2 40 -30 l0 -30 170 0 170 0 0
30 c0 28 2 30 40 30 l40 0 0 755 0 755 -75 0 -75 0 0 30 0 30 -105 0 -105 0 0
-30 c0 -27 -3 -30 -30 -30 l-30 0 0 -70 0 -70 -40 0 -40 0 0 -55 c0 -54 0 -55
-30 -55 l-30 0 0 -75 0 -75 -40 0 -40 0 0 -55 0 -55 -35 0 -35 0 0 -70 0 -70
-40 0 -40 0 0 355 0 355 -100 0 -100 0 0 -30z m130 -55 c0 -22 -4 -25 -35 -25
-31 0 -35 3 -35 25 0 22 4 25 35 25 31 0 35 -3 35 -25z"/>
<path d="M22070 7540 l0 -30 -85 0 -85 0 0 -390 0 -390 -30 0 -30 0 0 -395 0
-395 215 0 215 0 0 75 0 75 35 0 35 0 0 60 0 60 35 0 35 0 0 65 0 65 35 0 35
0 0 65 0 65 35 0 35 0 0 95 0 95 35 0 35 0 0 -360 0 -360 210 0 210 0 0 460 0
460 40 0 40 0 0 300 0 300 -40 0 c-36 0 -40 3 -40 25 0 23 -4 25 -40 25 -38 0
-40 2 -40 30 l0 30 -135 0 -135 0 0 -55 0 -55 -35 0 -35 0 0 -75 0 -75 -35 0
-35 0 0 -55 0 -55 -35 0 -35 0 0 -70 0 -70 -35 0 -35 0 0 -75 0 -75 -35 0
c-31 0 -35 -3 -35 -25 0 -22 -4 -25 -35 -25 l-35 0 0 200 0 200 35 0 35 0 0
125 0 125 -35 0 c-32 0 -35 2 -35 30 l0 30 -100 0 -100 0 0 -30z m200 -55 c0
-21 -5 -25 -30 -25 -25 0 -30 4 -30 25 0 21 5 25 30 25 25 0 30 -4 30 -25z"/>
<path d="M7130 7485 c0 -22 -4 -25 -35 -25 l-35 0 0 -335 0 -335 -30 0 -30 0
0 -425 0 -425 345 0 345 0 0 30 0 30 115 0 115 0 0 45 c0 45 0 45 35 45 31 0
35 3 35 25 0 22 4 25 35 25 33 0 35 2 35 35 0 32 2 35 30 35 l30 0 0 225 0
225 -30 0 c-28 0 -30 3 -30 35 0 33 -2 35 -35 35 -32 0 -35 2 -35 30 0 28 3
30 35 30 33 0 35 2 35 35 0 32 2 35 30 35 l30 0 0 70 0 70 35 0 35 0 0 185 0
185 -35 0 c-35 0 -35 0 -35 45 0 43 -1 45 -30 45 -25 0 -30 4 -30 25 l0 25
-465 0 -465 0 0 -25z m560 -330 l0 -45 40 0 c36 0 40 -2 40 -25 0 -22 -4 -25
-40 -25 -38 0 -40 -2 -40 -30 0 -27 -3 -30 -30 -30 -29 0 -30 -2 -30 -45 l0
-45 -105 0 -105 0 0 100 0 100 35 0 c35 0 35 0 35 45 l0 45 100 0 100 0 0 -45z
m0 -655 l0 -90 -70 0 -70 0 0 -35 0 -35 -65 0 -65 0 0 125 0 125 135 0 135 0
0 -90z m-340 -385 c0 -22 -4 -25 -35 -25 -31 0 -35 3 -35 25 0 22 4 25 35 25
31 0 35 -3 35 -25z"/>
<path d="M13400 7485 l0 -25 -105 0 -105 0 0 -200 0 -200 105 0 105 0 0 25 c0
24 2 25 75 25 73 0 75 -1 75 -25 0 -21 5 -25 30 -25 27 0 30 -3 30 -30 0 -27
-3 -30 -30 -30 l-30 0 0 -70 0 -70 -75 0 -75 0 0 -65 0 -65 75 0 75 0 0 -35
c0 -32 2 -35 30 -35 28 0 30 -3 30 -35 0 -33 2 -35 35 -35 l35 0 0 -60 0 -60
-35 0 c-32 0 -35 -2 -35 -30 l0 -30 -140 0 -140 0 0 30 0 30 -70 0 -70 0 0
-30 c0 -27 -3 -30 -30 -30 l-30 0 0 -100 0 -100 -40 0 c-39 0 -40 -1 -40 -35
0 -34 1 -35 40 -35 36 0 40 -2 40 -25 0 -24 2 -25 65 -25 l65 0 0 -45 0 -45
145 0 145 0 0 -30 0 -30 65 0 65 0 0 30 0 30 100 0 100 0 0 45 0 45 45 0 c41
0 45 2 45 25 0 22 4 25 35 25 33 0 35 2 35 35 0 33 2 35 35 35 l35 0 0 65 c0
63 1 65 25 65 25 0 25 0 25 95 0 95 0 95 -25 95 l-25 0 0 100 0 100 -35 0
c-32 0 -35 2 -35 30 0 28 -3 30 -35 30 l-35 0 0 60 0 60 35 0 35 0 0 75 0 75
35 0 35 0 0 155 0 155 -35 0 c-35 0 -35 0 -35 45 0 45 0 45 -35 45 -31 0 -35
3 -35 25 l0 25 -285 0 -285 0 0 -25z m570 -1180 c0 -35 0 -35 -45 -35 -45 0
-45 0 -45 35 0 35 0 35 45 35 45 0 45 0 45 -35z"/>
<path d="M6570 5315 c0 -22 -4 -25 -35 -25 l-35 0 0 -65 0 -65 -35 0 c-32 0
-35 -2 -35 -30 l0 -30 7495 0 7495 0 0 30 c0 28 3 30 35 30 32 0 35 -2 35 -30
l0 -30 205 0 205 0 0 30 0 30 85 0 85 0 0 35 c0 35 0 35 -45 35 l-45 0 0 55 0
55 -385 0 -385 0 0 -25 c0 -21 -5 -25 -30 -25 l-30 0 0 -65 0 -65 -40 0 c-39
0 -40 1 -40 35 0 33 -2 35 -35 35 -33 0 -35 -2 -35 -35 0 -34 -1 -35 -40 -35
l-40 0 0 65 0 65 -35 0 c-31 0 -35 3 -35 25 l0 25 -175 0 -175 0 0 -25 0 -25
-205 0 -205 0 0 25 0 25 -110 0 -110 0 0 -25 c0 -24 -2 -25 -65 -25 -63 0 -65
1 -65 25 l0 25 -600 0 -600 0 0 -25 0 -25 -145 0 -145 0 0 25 0 25 -140 0
-140 0 0 -25 c0 -22 -4 -25 -40 -25 -36 0 -40 3 -40 25 0 25 0 25 -95 25 -95
0 -95 0 -95 -25 0 -22 -4 -25 -40 -25 -36 0 -40 3 -40 25 l0 25 -3830 0 -3830
0 0 -25 0 -25 -430 0 -430 0 0 25 0 25 -590 0 -590 0 0 -25 0 -25 -145 0 -145
0 0 25 0 25 -530 0 -530 0 0 -25z m15330 -120 c0 -32 -2 -35 -30 -35 -28 0
-30 3 -30 35 0 32 2 35 30 35 28 0 30 -3 30 -35z"/>
<path d="M9800 4740 l0 -40 45 0 45 0 0 -60 0 -60 35 0 35 0 0 -70 0 -70 35 0
35 0 0 -60 0 -60 40 0 40 0 0 -45 c0 -41 2 -45 25 -45 24 0 25 -3 25 -55 l0
-55 40 0 40 0 0 -45 c0 -43 1 -45 30 -45 25 0 30 -4 30 -25 0 -22 4 -25 40
-25 l40 0 0 -55 c0 -54 0 -55 30 -55 29 0 30 -2 30 -45 l0 -45 40 0 c38 0 40
-2 40 -30 0 -28 3 -30 35 -30 31 0 35 -3 35 -25 0 -21 5 -25 30 -25 28 0 30
-2 30 -40 0 -39 1 -40 35 -40 32 0 35 -2 35 -30 0 -28 3 -30 35 -30 33 0 35
-2 35 -35 0 -34 1 -35 40 -35 39 0 40 -1 40 -35 0 -34 1 -35 40 -35 38 0 40
-2 40 -30 l0 -30 70 0 c68 0 70 -1 70 -25 0 -20 5 -25 25 -25 22 0 25 -4 25
-35 0 -34 1 -35 40 -35 l40 0 0 -40 c0 -38 2 -40 30 -40 25 0 30 -4 30 -25 0
-24 2 -25 75 -25 l75 0 0 -35 c0 -33 2 -35 35 -35 34 0 35 -1 35 -40 l0 -40
65 0 c63 0 65 -1 65 -25 0 -22 4 -25 35 -25 33 0 35 -2 35 -35 l0 -35 70 0 70
0 0 -30 0 -30 75 0 75 0 0 -35 0 -35 65 0 65 0 0 -35 0 -35 110 0 110 0 0 -30
0 -30 75 0 75 0 0 -35 0 -35 95 0 95 0 0 -35 0 -35 155 0 155 0 0 -30 0 -30
170 0 170 0 0 -30 0 -30 320 0 320 0 0 -40 0 -40 210 0 210 0 0 40 0 40 315 0
315 0 0 30 0 30 175 0 175 0 0 30 0 30 140 0 140 0 0 35 0 35 100 0 100 0 0
35 0 35 80 0 80 0 0 30 0 30 100 0 100 0 0 35 0 35 70 0 70 0 0 35 0 35 75 0
75 0 0 30 0 30 70 0 70 0 0 35 0 35 65 0 c63 0 65 1 65 25 0 23 4 25 40 25
l40 0 0 40 0 40 75 0 75 0 0 35 c0 32 2 35 30 35 25 0 30 4 30 25 0 24 2 25
75 25 l75 0 0 40 c0 38 2 40 30 40 28 0 30 3 30 35 0 33 2 35 35 35 31 0 35 3
35 25 0 22 4 25 35 25 32 0 35 2 35 30 0 28 3 30 35 30 33 0 35 2 35 35 0 34
1 35 40 35 39 0 40 1 40 35 l0 35 70 0 70 0 0 30 c0 25 4 30 25 30 23 0 25 4
25 40 l0 40 40 0 c36 0 40 3 40 25 0 21 5 25 30 25 l30 0 0 75 0 75 40 0 c36
0 40 3 40 25 0 23 4 25 40 25 38 0 40 2 40 30 0 28 3 30 35 30 31 0 35 3 35
25 0 22 4 25 35 25 l35 0 0 75 0 75 30 0 c25 0 30 4 30 25 0 22 4 25 35 25
l35 0 0 75 0 75 40 0 c38 0 40 2 40 30 0 27 3 30 30 30 l30 0 0 70 0 70 40 0
40 0 0 60 0 60 30 0 c28 0 30 2 30 40 l0 40 -875 0 -875 0 0 -40 0 -40 -40 0
c-38 0 -40 -2 -40 -30 0 -25 -4 -30 -25 -30 -21 0 -25 -5 -25 -30 0 -28 -2
-30 -40 -30 l-40 0 0 -40 c0 -39 -1 -40 -35 -40 -32 0 -35 -2 -35 -30 0 -28
-3 -30 -35 -30 -32 0 -35 -2 -35 -30 0 -28 -3 -30 -35 -30 -32 0 -35 -2 -35
-30 l0 -30 -70 0 -70 0 0 -45 0 -45 -40 0 c-36 0 -40 -2 -40 -25 0 -24 -2 -25
-65 -25 l-65 0 0 -30 c0 -28 -3 -30 -35 -30 -35 0 -35 0 -35 -45 l0 -45 -80 0
c-79 0 -80 0 -80 -25 0 -24 -2 -25 -70 -25 l-70 0 0 -30 0 -30 -65 0 c-63 0
-65 -1 -65 -25 0 -24 -2 -25 -70 -25 l-70 0 0 -45 0 -45 -105 0 -105 0 0 -30
0 -30 -135 0 -135 0 0 -25 0 -25 -215 0 -215 0 0 -40 0 -40 -325 0 -325 0 0
40 0 40 -240 0 -240 0 0 25 0 25 -105 0 -105 0 0 30 0 30 -100 0 -100 0 0 45
0 45 -115 0 -115 0 0 25 c0 24 -2 25 -65 25 l-65 0 0 30 0 30 -70 0 c-68 0
-70 1 -70 25 0 23 -4 25 -40 25 l-40 0 0 45 0 45 -70 0 -70 0 0 30 c0 28 -3
30 -35 30 -31 0 -35 3 -35 25 0 24 -2 25 -65 25 l-65 0 0 45 0 45 -40 0 c-38
0 -40 2 -40 30 0 27 -3 30 -30 30 -27 0 -30 3 -30 30 0 29 -2 30 -45 30 -43 0
-45 1 -45 30 0 27 -3 30 -30 30 -28 0 -30 2 -30 40 l0 40 -40 0 c-38 0 -40 2
-40 30 0 28 -3 30 -35 30 -32 0 -35 2 -35 30 0 27 -3 30 -30 30 -28 0 -30 2
-30 40 l0 40 -885 0 -885 0 0 -40z"/>
<path d="M8340 4670 c0 -28 -2 -30 -40 -30 -38 0 -40 -2 -40 -30 l0 -30 70 0
70 0 0 -40 0 -40 40 0 40 0 0 -90 0 -90 30 0 30 0 0 -70 0 -70 35 0 35 0 0
-75 0 -75 30 0 30 0 0 -125 0 -125 40 0 40 0 0 -125 0 -125 -40 0 -40 0 0
-100 0 -100 -30 0 c-25 0 -30 -4 -30 -25 0 -21 5 -25 30 -25 28 0 30 -3 30
-35 0 -34 1 -35 40 -35 l40 0 0 -65 0 -65 35 0 c33 0 35 -2 35 -35 l0 -35 250
0 250 0 0 -40 0 -40 70 0 c68 0 70 -1 70 -25 0 -24 2 -25 65 -25 l65 0 0 -35
c0 -33 2 -35 35 -35 32 0 35 -2 35 -30 0 -28 3 -30 35 -30 33 0 35 -2 35 -35
0 -33 2 -35 35 -35 33 0 35 -2 35 -35 0 -35 0 -35 45 -35 l45 0 0 -65 0 -65
70 0 70 0 0 -95 0 -95 40 0 40 0 0 -235 0 -235 65 0 65 0 0 -30 c0 -27 3 -30
30 -30 25 0 30 -4 30 -25 l0 -25 110 0 110 0 0 25 c0 24 2 25 65 25 l65 0 0
30 c0 28 3 30 35 30 32 0 35 -2 35 -30 l0 -30 185 0 185 0 0 -25 c0 -25 0 -25
95 -25 l95 0 0 -45 0 -45 75 0 75 0 0 -30 c0 -28 3 -30 35 -30 31 0 35 -3 35
-25 0 -24 2 -25 65 -25 l65 0 0 -35 c0 -33 2 -35 35 -35 34 0 35 -1 35 -40 l0
-40 40 0 40 0 0 -60 0 -60 30 0 30 0 0 -65 0 -65 45 0 45 0 0 -100 0 -100 95
0 95 0 0 -35 0 -35 110 0 110 0 0 35 c0 33 2 35 35 35 34 0 35 1 35 40 l0 40
70 0 c68 0 70 1 70 25 l0 25 105 0 105 0 0 35 0 35 215 0 215 0 0 -35 0 -35
140 0 140 0 0 -25 0 -25 105 0 105 0 0 -40 c0 -38 2 -40 30 -40 28 0 30 -3 30
-35 0 -34 1 -35 40 -35 36 0 40 -2 40 -25 0 -21 5 -25 30 -25 28 0 30 -3 30
-35 0 -35 0 -35 45 -35 l45 0 0 -65 0 -65 210 0 210 0 0 30 c0 27 3 30 30 30
28 0 30 3 30 35 0 34 1 35 40 35 l40 0 0 60 0 60 75 0 75 0 0 35 c0 31 3 35
25 35 23 0 25 4 25 40 l0 40 115 0 115 0 0 25 0 25 135 0 135 0 0 35 0 35 175
0 175 0 0 -35 0 -35 135 0 135 0 0 -25 c0 -25 1 -25 80 -25 l80 0 0 -40 c0
-39 1 -40 35 -40 33 0 35 -2 35 -35 l0 -35 105 0 105 0 0 35 0 35 70 0 70 0 0
40 0 40 -40 0 c-36 0 -40 3 -40 25 0 24 2 25 75 25 l75 0 0 60 0 60 35 0 35 0
0 75 0 75 35 0 c31 0 35 3 35 25 0 23 4 25 40 25 l40 0 0 40 0 40 65 0 65 0 0
35 c0 32 2 35 30 35 25 0 30 4 30 25 0 23 4 25 45 25 43 0 45 1 45 30 l0 30
70 0 70 0 0 45 0 45 100 0 100 0 0 25 c0 22 4 25 35 25 32 0 35 2 35 30 0 28
3 30 35 30 32 0 35 -2 35 -30 l0 -30 245 0 245 0 0 -25 c0 -24 2 -25 75 -25
73 0 75 1 75 25 0 22 4 25 35 25 l35 0 0 75 0 75 65 0 65 0 0 150 0 150 40 0
40 0 0 100 0 100 30 0 c28 0 30 3 30 35 0 34 1 35 40 35 l40 0 0 65 0 65 30 0
c28 0 30 3 30 35 0 34 1 35 40 35 39 0 40 1 40 35 l0 35 65 0 65 0 0 30 c0 28
3 30 35 30 33 0 35 2 35 35 0 33 2 35 35 35 31 0 35 3 35 25 l0 25 115 0 115
0 0 40 0 40 65 0 65 0 0 35 c0 33 2 35 35 35 31 0 35 3 35 25 0 23 4 25 40 25
l40 0 0 -60 0 -60 30 0 c28 0 30 3 30 35 0 34 1 35 40 35 l40 0 0 65 0 65 70
0 70 0 0 35 c0 31 3 35 25 35 20 0 25 5 25 25 0 20 -5 25 -25 25 l-25 0 0 100
0 100 -40 0 -40 0 0 125 0 125 40 0 40 0 0 100 0 100 25 0 25 0 0 100 0 100
40 0 40 0 0 70 0 70 35 0 c32 0 35 2 35 30 0 28 2 30 40 30 l40 0 0 60 0 60
35 0 c34 0 35 1 35 40 l0 40 40 0 40 0 0 60 0 60 -115 0 -115 0 0 -30 0 -30
-100 0 -100 0 0 30 0 30 -70 0 -70 0 0 -60 0 -60 -40 0 -40 0 0 -70 0 -70 -30
0 -30 0 0 -60 0 -60 -40 0 -40 0 0 -70 0 -70 -35 0 -35 0 0 -75 0 -75 -30 0
c-30 0 -30 -1 -30 -55 l0 -55 -35 0 c-31 0 -35 -3 -35 -25 0 -22 -4 -25 -35
-25 l-35 0 0 -75 0 -75 -35 0 c-31 0 -35 -3 -35 -25 0 -23 -4 -25 -45 -25
l-45 0 0 -70 0 -70 45 0 45 0 0 -70 0 -70 -45 0 c-45 0 -45 0 -45 35 l0 35
-70 0 -70 0 0 -35 c0 -34 -1 -35 -40 -35 -38 0 -40 -2 -40 -30 0 -25 -4 -30
-25 -30 -24 0 -25 -3 -25 -60 l0 -60 -40 0 -40 0 0 -40 c0 -38 -2 -40 -30 -40
-25 0 -30 -4 -30 -25 0 -22 -4 -25 -40 -25 -39 0 -40 -1 -40 -35 0 -32 -2 -35
-30 -35 -28 0 -30 -2 -30 -40 l0 -40 -40 0 c-36 0 -40 -2 -40 -25 0 -22 -4
-25 -35 -25 -33 0 -35 -2 -35 -35 l0 -35 -65 0 -65 0 0 -30 c0 -28 -3 -30 -35
-30 -33 0 -35 -2 -35 -35 0 -34 -1 -35 -40 -35 -39 0 -40 -1 -40 -35 0 -34 -1
-35 -40 -35 -38 0 -40 -2 -40 -30 0 -27 -3 -30 -30 -30 -28 0 -30 -3 -30 -35
0 -34 -1 -35 -40 -35 l-40 0 0 -65 0 -65 -95 0 -95 0 0 -30 0 -30 -75 0 -75 0
0 -40 c0 -39 -1 -40 -35 -40 -32 0 -35 -2 -35 -30 l0 -30 -65 0 c-63 0 -65 -1
-65 -25 0 -24 -2 -25 -75 -25 l-75 0 0 -40 0 -40 40 0 c38 0 40 -2 40 -30 0
-28 -2 -30 -40 -30 -36 0 -40 -2 -40 -25 0 -21 -5 -25 -30 -25 -29 0 -30 -2
-30 -45 l0 -45 -45 0 -45 0 0 70 0 70 -70 0 c-68 0 -70 -1 -70 -25 0 -24 -2
-25 -65 -25 l-65 0 0 -45 0 -45 -70 0 -70 0 0 -30 0 -30 -75 0 c-73 0 -75 -1
-75 -25 0 -25 0 -25 -95 -25 l-95 0 0 -45 0 -45 -115 0 -115 0 0 -30 0 -30
-140 0 -140 0 0 -25 0 -25 -140 0 -140 0 0 -35 0 -35 -205 0 -205 0 0 -40 0
-40 -815 0 -815 0 0 40 0 40 -170 0 -170 0 0 35 0 35 -155 0 -155 0 0 25 0 25
-135 0 -135 0 0 30 0 30 -105 0 -105 0 0 45 0 45 -65 0 c-63 0 -65 1 -65 25
l0 25 -115 0 -115 0 0 30 0 30 -70 0 -70 0 0 45 0 45 -65 0 c-63 0 -65 1 -65
25 0 24 -2 25 -70 25 l-70 0 0 30 0 30 -75 0 -75 0 0 40 0 40 -70 0 c-68 0
-70 1 -70 25 0 20 -5 25 -25 25 -21 0 -25 5 -25 30 l0 30 -70 0 -70 0 0 40 0
40 -80 0 -80 0 0 30 c0 28 -3 30 -35 30 -32 0 -35 2 -35 30 0 28 -3 30 -35 30
-33 0 -35 2 -35 35 l0 35 -65 0 -65 0 0 35 c0 34 -1 35 -40 35 -38 0 -40 2
-40 30 0 27 -3 30 -30 30 -28 0 -30 3 -30 35 0 34 -1 35 -40 35 -39 0 -40 1
-40 35 0 32 -2 35 -30 35 -27 0 -30 3 -30 30 0 28 -2 30 -40 30 -39 0 -40 1
-40 35 0 31 -3 35 -25 35 -20 0 -25 5 -25 25 0 23 -4 25 -40 25 l-40 0 0 40
c0 39 -1 40 -35 40 -33 0 -35 2 -35 35 0 33 -2 35 -35 35 -31 0 -35 3 -35 25
0 23 -4 25 -45 25 l-45 0 0 40 c0 39 -1 40 -35 40 -33 0 -35 2 -35 35 0 33 -2
35 -35 35 -31 0 -35 3 -35 25 0 22 -4 25 -35 25 l-35 0 0 65 0 65 -30 0 c-28
0 -30 3 -30 35 0 33 -2 35 -35 35 -32 0 -35 2 -35 30 0 28 -2 30 -40 30 l-40
0 0 65 0 65 -30 0 c-27 0 -30 3 -30 30 0 28 -2 30 -40 30 l-40 0 0 70 0 70
-30 0 c-27 0 -30 3 -30 30 0 28 -2 30 -40 30 l-40 0 0 70 c0 68 -1 70 -25 70
-24 0 -25 3 -25 55 l0 55 -40 0 -40 0 0 45 c0 45 0 45 -35 45 l-35 0 0 60 0
60 -40 0 -40 0 0 70 0 70 -35 0 c-32 0 -35 2 -35 30 0 28 -2 30 -40 30 -38 0
-40 2 -40 30 l0 30 -165 0 -165 0 0 -30z m200 -60 l0 -30 -70 0 -70 0 0 30 0
30 70 0 70 0 0 -30z m210 -70 l0 -40 -40 0 -40 0 0 40 0 40 40 0 40 0 0 -40z
m10710 -645 c0 -21 5 -25 30 -25 l30 0 0 -140 0 -140 -30 0 -30 0 0 95 0 95
-40 0 -40 0 0 70 0 70 40 0 c36 0 40 -2 40 -25z m-80 -370 l0 -65 -35 0 -35 0
0 65 0 65 35 0 35 0 0 -65z m280 -165 c0 -27 -3 -30 -30 -30 -27 0 -30 3 -30
30 0 27 3 30 30 30 27 0 30 -3 30 -30z m-10070 -115 l0 -35 -65 0 -65 0 0 35
0 35 65 0 65 0 0 -35z m210 -175 l0 -60 45 0 45 0 0 -40 0 -40 -45 0 -45 0 0
40 c0 39 -1 40 -35 40 -33 0 -35 2 -35 35 0 33 -2 35 -35 35 -31 0 -35 3 -35
25 0 24 2 25 70 25 l70 0 0 -60z m9240 35 c0 -25 -1 -25 -80 -25 l-80 0 0 -35
c0 -33 -2 -35 -35 -35 -33 0 -35 2 -35 35 0 33 2 35 35 35 31 0 35 3 35 25 0
25 1 25 80 25 79 0 80 0 80 -25z m-8880 -525 l0 -30 -65 0 -65 0 0 30 0 30 65
0 65 0 0 -30z m7460 -330 c0 -38 -2 -40 -30 -40 -28 0 -30 2 -30 40 0 38 2 40
30 40 28 0 30 -2 30 -40z m570 -315 c0 -22 -4 -25 -35 -25 -31 0 -35 3 -35 25
0 22 4 25 35 25 31 0 35 -3 35 -25z m-1760 -370 l0 -55 -70 0 c-68 0 -70 1
-70 25 0 21 5 25 30 25 27 0 30 3 30 30 0 28 2 30 40 30 l40 0 0 -55z m210
-165 c0 -39 -1 -40 -35 -40 -34 0 -35 1 -35 40 0 39 1 40 35 40 34 0 35 -1 35
-40z m-4150 -65 c0 -22 -4 -25 -40 -25 -36 0 -40 3 -40 25 0 23 4 25 40 25 36
0 40 -2 40 -25z m2040 -460 c0 -34 -1 -35 -40 -35 -39 0 -40 1 -40 35 0 34 1
35 40 35 39 0 40 -1 40 -35z"/>
<path d="M9240 4640 l0 -60 40 0 40 0 0 -70 0 -70 30 0 30 0 0 -60 0 -60 40 0
40 0 0 -70 0 -70 35 0 c32 0 35 -2 35 -30 0 -27 3 -30 30 -30 l30 0 0 -70 0
-70 35 0 c32 0 35 -2 35 -30 0 -28 3 -30 35 -30 l35 0 0 -70 0 -70 35 0 c32 0
35 -2 35 -30 0 -29 2 -30 45 -30 41 0 45 -2 45 -25 0 -22 4 -25 35 -25 34 0
35 -1 35 -40 0 -39 1 -40 35 -40 l35 0 0 -65 0 -65 40 0 c39 0 40 -1 40 -35 0
-31 3 -35 25 -35 21 0 25 -5 25 -30 0 -28 2 -30 40 -30 36 0 40 -2 40 -25 0
-21 5 -25 30 -25 28 0 30 -3 30 -35 0 -34 1 -35 40 -35 l40 0 0 -40 c0 -38 2
-40 30 -40 25 0 30 -4 30 -25 0 -22 4 -25 40 -25 39 0 40 -1 40 -35 0 -33 2
-35 35 -35 34 0 35 -1 35 -40 l0 -40 65 0 c63 0 65 -1 65 -25 0 -22 4 -25 35
-25 33 0 35 -2 35 -35 0 -34 1 -35 40 -35 38 0 40 -2 40 -30 0 -28 2 -30 40
-30 39 0 40 -1 40 -35 l0 -35 70 0 70 0 0 -35 c0 -31 3 -35 25 -35 21 0 25 -5
25 -30 l0 -30 70 0 70 0 0 -35 0 -35 75 0 75 0 0 -35 c0 -33 2 -35 35 -35 32
0 35 -2 35 -30 l0 -30 65 0 65 0 0 -30 0 -30 75 0 75 0 0 -40 0 -40 75 0 75 0
0 -30 0 -30 95 0 c95 0 95 0 95 -25 0 -24 2 -25 75 -25 l75 0 0 -40 0 -40 110
0 110 0 0 -30 0 -30 135 0 135 0 0 -25 0 -25 115 0 115 0 0 -45 0 -45 205 0
205 0 0 -30 0 -30 780 0 780 0 0 30 0 30 205 0 205 0 0 45 0 45 140 0 140 0 0
25 0 25 100 0 100 0 0 30 0 30 115 0 115 0 0 40 0 40 105 0 105 0 0 25 c0 24
2 25 70 25 l70 0 0 30 0 30 70 0 70 0 0 40 0 40 75 0 75 0 0 30 0 30 65 0 65
0 0 30 0 30 75 0 75 0 0 35 0 35 70 0 70 0 0 35 c0 33 2 35 35 35 32 0 35 2
35 30 l0 30 65 0 65 0 0 35 c0 33 2 35 35 35 33 0 35 2 35 35 l0 35 75 0 75 0
0 30 c0 27 3 30 30 30 28 0 30 3 30 35 0 34 1 35 40 35 36 0 40 3 40 25 0 20
5 25 25 25 23 0 25 4 25 40 l0 40 40 0 c39 0 40 1 40 35 0 32 2 35 30 35 25 0
30 4 30 25 0 25 1 25 80 25 l80 0 0 40 c0 39 1 40 35 40 33 0 35 2 35 35 0 33
2 35 35 35 31 0 35 3 35 25 0 21 5 25 30 25 l30 0 0 65 0 65 35 0 c33 0 35 2
35 35 0 34 1 35 40 35 38 0 40 2 40 30 0 27 3 30 30 30 28 0 30 2 30 40 l0 40
40 0 c36 0 40 3 40 25 0 21 5 25 30 25 l30 0 0 75 0 75 40 0 c36 0 40 3 40 25
0 20 5 25 25 25 24 0 25 3 25 55 l0 55 40 0 40 0 0 45 c0 45 0 45 35 45 l35 0
0 55 0 55 35 0 35 0 0 75 0 75 45 0 45 0 0 60 0 60 35 0 35 0 0 100 0 100
-115 0 -115 0 0 -60 0 -60 -35 0 c-34 0 -35 -1 -35 -40 l0 -40 -40 0 -40 0 0
-60 c0 -57 -1 -60 -25 -60 -24 0 -25 -2 -25 -75 l0 -75 -40 0 -40 0 0 -55 c0
-54 0 -55 -30 -55 -29 0 -30 -2 -30 -45 l0 -45 -40 0 c-36 0 -40 -2 -40 -25 0
-21 -5 -25 -30 -25 -30 0 -30 -1 -30 -55 l0 -55 -40 0 -40 0 0 -45 c0 -45 0
-45 -35 -45 -32 0 -35 -2 -35 -30 0 -27 -3 -30 -30 -30 -25 0 -30 -4 -30 -25
0 -22 -4 -25 -35 -25 -34 0 -35 -1 -35 -40 0 -39 -1 -40 -35 -40 -32 0 -35 -2
-35 -30 0 -28 -2 -30 -40 -30 l-40 0 0 -70 0 -70 -40 0 c-38 0 -40 -2 -40 -30
0 -27 -3 -30 -30 -30 -25 0 -30 -4 -30 -25 0 -22 -4 -25 -40 -25 -39 0 -40 -1
-40 -35 l0 -35 -65 0 -65 0 0 -40 c0 -38 -2 -40 -30 -40 -25 0 -30 -4 -30 -25
0 -22 -4 -25 -40 -25 -39 0 -40 -1 -40 -35 0 -33 -2 -35 -35 -35 -34 0 -35 -1
-35 -40 l0 -40 -70 0 c-68 0 -70 -1 -70 -25 0 -21 -5 -25 -30 -25 -28 0 -30
-3 -30 -35 l0 -35 -75 0 -75 0 0 -30 c0 -27 -3 -30 -30 -30 -28 0 -30 -3 -30
-35 l0 -35 -75 0 -75 0 0 -35 0 -35 -65 0 -65 0 0 -30 c0 -28 -2 -30 -40 -30
-39 0 -40 -1 -40 -35 l0 -35 -70 0 -70 0 0 -35 0 -35 -75 0 -75 0 0 -30 0 -30
-95 0 -95 0 0 -30 0 -30 -115 0 -115 0 0 -40 0 -40 -110 0 -110 0 0 -30 0 -30
-100 0 -100 0 0 -25 0 -25 -140 0 -140 0 0 -40 0 -40 -275 0 -275 0 0 -30 0
-30 -470 0 -470 0 0 30 0 30 -240 0 -240 0 0 40 0 40 -175 0 -175 0 0 25 0 25
-140 0 -140 0 0 30 0 30 -110 0 -110 0 0 40 0 40 -70 0 -70 0 0 30 0 30 -100
0 -100 0 0 30 0 30 -70 0 -70 0 0 35 0 35 -75 0 -75 0 0 35 0 35 -75 0 -75 0
0 30 0 30 -65 0 -65 0 0 35 c0 33 -2 35 -35 35 -33 0 -35 2 -35 35 l0 35 -75
0 -75 0 0 30 c0 27 -3 30 -30 30 -28 0 -30 3 -30 35 l0 35 -65 0 c-63 0 -65 1
-65 25 0 23 -4 25 -40 25 l-40 0 0 40 c0 38 -2 40 -30 40 -28 0 -30 3 -30 35
0 34 -1 35 -40 35 -36 0 -40 3 -40 25 0 24 -2 25 -75 25 l-75 0 0 40 c0 39 -1
40 -35 40 -33 0 -35 2 -35 35 0 32 -2 35 -30 35 -25 0 -30 4 -30 25 0 22 -4
25 -35 25 -32 0 -35 2 -35 30 0 28 -2 30 -40 30 -39 0 -40 1 -40 35 0 32 -2
35 -30 35 -28 0 -30 3 -30 35 0 34 -1 35 -40 35 -38 0 -40 2 -40 30 0 27 -3
30 -30 30 l-30 0 0 65 0 65 -40 0 c-38 0 -40 2 -40 30 0 25 -4 30 -25 30 -23
0 -25 4 -25 45 l0 45 -40 0 c-36 0 -40 3 -40 25 0 22 -4 25 -35 25 l-35 0 0
55 0 55 -35 0 c-35 0 -35 0 -35 45 l0 45 -45 0 -45 0 0 55 0 55 -35 0 c-35 0
-35 0 -35 45 0 45 0 45 -35 45 l-35 0 0 60 0 60 -35 0 -35 0 0 70 0 70 -30 0
-30 0 0 60 0 60 -145 0 -145 0 0 -60z"/>
<path d="M12270 4670 c0 -28 3 -30 35 -30 32 0 35 -2 35 -30 l0 -30 75 0 75 0
0 -40 c0 -38 2 -40 30 -40 27 0 30 -3 30 -30 l0 -30 65 0 65 0 0 30 c0 25 -4
30 -25 30 l-25 0 0 100 0 100 -180 0 -180 0 0 -30z"/>
<path d="M12990 4640 l0 -60 -40 0 -40 0 0 -70 0 -70 -40 0 c-38 0 -40 -2 -40
-30 0 -28 2 -30 40 -30 38 0 40 -2 40 -30 0 -28 2 -30 40 -30 l40 0 0 -45 0
-45 70 0 c68 0 70 -1 70 -25 l0 -25 100 0 100 0 0 -30 0 -30 70 0 70 0 0 30
c0 28 2 30 40 30 38 0 40 -2 40 -30 0 -27 3 -30 30 -30 29 0 30 -2 30 -45 l0
-45 215 0 215 0 0 45 c0 45 0 45 35 45 35 0 35 0 35 -45 l0 -45 70 0 c68 0 70
-1 70 -25 0 -21 5 -25 30 -25 25 0 30 4 30 25 l0 25 280 0 280 0 0 45 0 45
115 0 115 0 0 30 0 30 95 0 c95 0 95 0 95 25 0 24 2 25 75 25 l75 0 0 45 0 45
70 0 70 0 0 30 c0 28 3 30 35 30 32 0 35 2 35 30 l0 30 100 0 100 0 0 30 c0
28 2 30 40 30 l40 0 0 40 0 40 75 0 75 0 0 30 c0 28 2 30 40 30 38 0 40 2 40
30 l0 30 -325 0 -325 0 0 -30 0 -30 -140 0 -140 0 0 30 0 30 -1020 0 -1020 0
0 -30 0 -30 -70 0 -70 0 0 30 c0 27 -3 30 -30 30 l-30 0 0 -60z m1600 -30 c0
-27 -3 -30 -30 -30 -27 0 -30 3 -30 30 0 27 3 30 30 30 27 0 30 -3 30 -30z
m640 -40 l0 -70 -105 0 -105 0 0 40 0 40 40 0 c38 0 40 2 40 30 l0 30 65 0 65
0 0 -70z m-2040 -30 c0 -38 -2 -40 -30 -40 -28 0 -30 2 -30 40 0 38 2 40 30
40 28 0 30 -2 30 -40z m2180 -30 l0 -70 -40 0 -40 0 0 70 0 70 40 0 40 0 0
-70z m140 30 c0 -39 1 -40 35 -40 32 0 35 -2 35 -30 0 -28 -3 -30 -35 -30 -32
0 -35 -2 -35 -30 0 -28 -3 -30 -35 -30 l-35 0 0 100 0 100 35 0 c34 0 35 -1
35 -40z"/>
</g>
</svg>
