<?xml version="1.0" standalone="no"?>
<!DOCTYPE svg PUBLIC "-//W3C//DTD SVG 20010904//EN"
 "http://www.w3.org/TR/2001/REC-SVG-20010904/DTD/svg10.dtd">
<svg version="1.0" xmlns="http://www.w3.org/2000/svg"
 width="2888.000000pt" height="1378.000000pt" viewBox="0 0 2888.000000 1378.000000"
 preserveAspectRatio="xMidYMid meet">

<g transform="translate(0.000000,1378.000000) scale(0.100000,-0.100000)"
fill="#000000" stroke="none">
<path d="M1378 13541 c-8 -10 -31 -29 -51 -41 -27 -16 -36 -28 -33 -39 5 -13
4 -13 -8 2 -16 20 -82 25 -69 5 4 -7 -11 1 -32 17 -50 39 -80 36 -99 -9 -8
-19 -29 -45 -48 -59 -39 -30 -121 -52 -146 -38 -23 13 -62 -15 -62 -46 0 -65
-88 -153 -154 -153 -36 0 -57 -34 -44 -71 13 -37 -11 -112 -49 -151 l-27 -28
42 0 c41 0 42 1 71 58 16 31 52 85 79 118 27 34 53 71 57 83 4 13 12 20 20 17
7 -2 23 6 35 19 13 13 40 36 61 51 21 14 36 31 32 37 -3 5 -2 7 4 4 5 -3 46
12 91 34 123 60 215 81 358 83 l121 1 -15 23 c-12 18 -12 22 -1 22 8 0 -3 11
-23 25 -20 13 -38 30 -41 37 -4 10 -8 10 -16 -2 -9 -13 -11 -13 -11 3 0 23
-25 22 -42 -2z m47 -51 c-1 -8 -10 -17 -21 -19 -10 -2 -25 -8 -31 -13 -9 -7
-13 -7 -13 0 0 6 -8 13 -17 15 -11 3 -7 5 10 6 15 0 27 7 27 14 0 6 11 12 24
12 15 0 23 -5 21 -15z"/>
<path d="M1650 13498 c-19 -10 -54 -18 -77 -18 -42 0 -63 -13 -43 -25 6 -4 18
-1 27 7 10 8 14 8 10 1 -4 -6 -3 -14 2 -17 5 -3 11 1 15 9 3 8 11 15 17 15 7
0 5 -7 -5 -19 -17 -18 -17 -20 1 -29 19 -10 78 -25 89 -22 4 1 10 -2 13 -7 7
-10 57 -33 71 -33 16 0 11 36 -5 50 -9 7 -14 19 -11 27 3 8 1 11 -4 8 -6 -4
-10 6 -10 23 0 42 -41 55 -90 30z"/>
<path d="M1550 13436 c0 -9 5 -16 10 -16 6 0 10 4 10 9 0 6 -4 13 -10 16 -5 3
-10 -1 -10 -9z"/>
<path d="M1812 13378 c-20 -20 -14 -33 28 -57 22 -12 42 -22 44 -22 3 0 16 -9
29 -22 44 -42 77 -67 89 -67 6 0 8 -3 5 -6 -3 -4 16 -31 42 -61 27 -30 69 -90
93 -134 l43 -78 44 -1 45 0 -33 34 c-39 40 -68 130 -50 153 16 18 4 43 -21 43
-12 0 -18 5 -15 10 3 6 -2 10 -11 10 -64 0 -132 64 -145 137 -5 25 -17 51 -26
58 -18 13 -43 9 -43 -7 0 -5 5 -6 12 -2 7 4 8 3 4 -5 -5 -7 -12 -9 -19 -3 -7
5 -25 12 -42 15 -16 3 -37 8 -45 12 -9 3 -21 0 -28 -7z m154 -46 c15 -10 30
-57 15 -48 -6 4 -11 13 -11 21 0 8 -8 19 -17 24 -10 6 -13 10 -8 11 6 0 15 -4
21 -8z"/>
<path d="M1250 13361 c-159 -34 -294 -113 -411 -239 -63 -68 -127 -167 -115
-179 9 -9 35 17 72 73 84 127 260 257 404 298 198 57 420 29 596 -75 78 -46
214 -181 254 -251 35 -63 47 -75 60 -62 15 15 -54 125 -125 202 -187 202 -465
290 -735 233z"/>
<path d="M1264 13286 c-128 -29 -240 -91 -341 -189 -55 -53 -123 -141 -123
-160 0 -4 54 -7 120 -7 l120 0 56 45 c99 81 194 115 319 115 117 0 254 -53
326 -125 l34 -34 128 -1 128 0 -23 42 c-36 66 -165 190 -241 232 -109 61 -204
88 -332 92 -71 2 -131 -1 -171 -10z"/>
<path d="M1325 13024 c-37 -9 -125 -46 -125 -53 0 -3 -15 -13 -32 -20 l-33
-15 30 -7 c40 -11 505 -10 505 1 0 17 -35 43 -90 69 -44 20 -73 26 -145 27
-49 2 -99 1 -110 -2z m125 -62 c19 -18 19 -18 -4 -17 -29 0 -41 10 -31 24 9
15 13 14 35 -7z"/>
<path d="M299 12849 c-11 -11 -19 -21 -17 -22 2 -1 510 -1 1131 1 1125 2 1127
2 1115 22 -13 20 -23 20 -992 20 -689 -1 -984 -4 -993 -12 -9 -7 -13 -7 -13 1
0 6 -5 11 -11 11 -5 0 -7 -4 -4 -10 3 -5 -1 -10 -10 -10 -9 0 -13 5 -10 10 4
6 -27 10 -84 10 -79 0 -94 -3 -112 -21z"/>
<path d="M268 12703 c-18 -5 -39 -50 -74 -160 l-22 -73 33 0 c24 0 34 5 38 20
8 29 55 27 59 -2 2 -18 10 -23 33 -23 28 0 30 2 27 35 -11 119 -44 215 -71
209 -3 -1 -13 -3 -23 -6z m22 -113 c0 -11 -4 -20 -10 -20 -5 0 -10 9 -10 20 0
11 5 20 10 20 6 0 10 -9 10 -20z m60 -104 c0 -5 -7 -3 -15 4 -8 7 -12 17 -9
22 7 10 24 -9 24 -26z"/>
<path d="M638 12703 c-57 -4 -58 -4 -58 -35 0 -27 3 -30 25 -26 24 5 25 3 27
-51 1 -31 2 -73 1 -93 -1 -30 2 -38 15 -38 37 0 38 5 41 126 1 60 2 62 32 68
25 5 30 10 27 28 -3 25 -14 27 -110 21z"/>
<path d="M797 12680 c-52 -61 -43 -180 14 -211 44 -23 109 31 104 89 -1 12 2
22 7 22 11 0 10 41 -3 79 -21 59 -82 69 -122 21z m75 -59 c4 -45 -17 -104 -35
-98 -13 4 -16 89 -4 120 12 32 35 19 39 -22z"/>
<path d="M1073 12702 c-7 -4 -14 -54 -18 -125 l-8 -117 30 0 c27 0 33 6 56 58
l26 57 0 -57 c1 -57 2 -58 30 -58 l28 0 6 112 c4 73 2 117 -5 125 -22 27 -45
13 -73 -44 -30 -58 -40 -57 -33 3 2 19 0 34 -5 34 -4 0 -5 5 -2 10 7 12 -15
13 -32 2z"/>
<path d="M1575 12698 c-11 -6 -23 -16 -27 -22 -13 -19 -9 -71 8 -94 14 -21 14
-25 -7 -59 -22 -35 -22 -36 -4 -49 26 -20 27 -19 54 31 31 59 54 60 49 3 -2
-35 0 -43 16 -46 10 -2 22 0 26 5 5 4 11 61 15 126 l7 117 -58 0 c-33 0 -68
-6 -79 -12z m78 -60 c7 -26 -7 -38 -34 -31 -21 6 -26 39 -6 46 24 10 35 7 40
-15z"/>
<path d="M1804 12703 l-61 -4 -7 -76 c-11 -131 -8 -163 12 -163 32 0 39 15 45
94 6 77 14 95 45 96 8 0 12 -20 14 -62 1 -77 2 -80 11 -95 4 -6 1 -13 -5 -16
-21 -7 -1 -19 20 -13 15 5 21 19 26 59 14 123 4 191 -28 185 -6 -1 -38 -3 -72
-5z"/>
<path d="M1977 12699 c-46 -27 -65 -165 -29 -210 27 -33 78 -30 109 6 13 15
22 34 19 41 -3 8 -1 14 4 14 6 0 10 25 10 55 0 46 -4 60 -25 80 -26 26 -58 31
-88 14z m54 -51 c0 -7 2 -22 4 -33 6 -31 -14 -95 -30 -95 -17 0 -27 31 -20 64
3 14 7 37 10 51 5 25 34 35 36 13z"/>
<path d="M2116 12633 c-10 -125 -8 -173 8 -173 36 0 46 12 46 56 0 24 4 44 9
44 5 0 16 3 25 6 13 5 16 -2 16 -45 0 -50 1 -51 30 -51 l30 0 0 89 c0 49 3
103 6 120 6 29 5 31 -25 31 -25 0 -31 -4 -31 -22 0 -47 -12 -68 -37 -68 -23 0
-24 2 -17 45 6 45 6 45 -23 45 l-30 0 -7 -77z"/>
<path d="M2331 12701 c-9 -6 -16 -42 -21 -117 -4 -60 -5 -112 -3 -116 2 -5 15
-8 29 -8 21 0 30 10 50 55 14 30 28 55 31 55 3 0 3 -24 1 -52 -3 -53 -3 -53
27 -53 l30 0 3 114 c3 115 -1 130 -35 131 -7 0 -26 -26 -42 -57 l-30 -58 -1
58 c0 58 -8 67 -39 48z"/>
<path d="M2524 12702 c-7 -4 -15 -55 -19 -124 l-7 -118 29 0 c27 0 33 6 56 58
l27 57 0 -57 c0 -57 0 -58 28 -58 l29 0 7 111 c7 116 1 139 -34 139 -10 0 -25
-19 -40 -51 -33 -69 -42 -71 -38 -8 2 41 0 54 -12 56 -8 2 -20 0 -26 -5z"/>
<path d="M406 12692 c-2 -4 -8 -59 -12 -121 l-7 -114 61 5 c74 5 102 26 102
74 0 18 -5 36 -10 39 -7 4 -5 14 5 28 18 26 20 68 3 85 -13 13 -134 17 -142 4z
m87 -56 c3 -12 -30 -32 -39 -24 -11 12 5 40 21 36 9 -2 17 -7 18 -12z m-3 -90
c0 -8 -7 -17 -16 -20 -23 -9 -24 -8 -24 14 0 13 7 20 20 20 11 0 20 -6 20 -14z"/>
<path d="M1288 12693 c-12 -3 -18 -14 -18 -35 0 -27 3 -30 24 -24 31 8 41 -7
20 -28 -14 -15 -14 -18 7 -35 28 -23 17 -43 -23 -39 -24 2 -32 -2 -39 -19 -10
-28 15 -45 69 -46 26 -1 40 6 58 27 28 32 29 41 10 78 -12 22 -12 34 -3 58 16
43 0 65 -49 67 -21 0 -47 -1 -56 -4z"/>
<path d="M320 12349 c-11 -19 4 -19 1084 -19 602 0 1102 3 1110 6 8 3 12 12 9
20 -8 22 -109 19 -122 -3 -11 -21 -21 -21 -33 0 -7 13 -134 15 -1023 15 -994
1 -1015 0 -1025 -19z"/>
<path d="M817 12228 c35 -66 161 -192 235 -236 208 -123 479 -127 699 -10 104
55 225 174 275 270 l15 28 -122 0 -121 0 -48 -43 c-199 -179 -502 -176 -679 7
l-35 36 -124 0 -123 0 28 -52z"/>
<path d="M575 12261 c-3 -6 -2 -11 4 -11 11 0 46 -72 55 -117 4 -16 3 -40 -2
-54 -13 -35 12 -69 50 -69 66 0 138 -67 146 -135 5 -49 36 -75 67 -57 46 25
165 -34 186 -92 16 -44 42 -51 98 -24 40 19 50 20 100 10 41 -8 64 -20 83 -42
30 -33 68 -39 88 -15 6 8 8 20 4 26 -4 7 -3 9 3 6 6 -4 26 1 44 10 45 23 128
22 163 0 27 -18 72 -15 61 4 -4 5 -2 9 4 9 10 0 27 39 23 53 -1 5 2 6 7 3 5
-3 19 2 32 12 47 37 82 48 129 41 50 -7 64 -3 56 17 -3 8 0 11 8 8 9 -3 15 8
20 35 4 27 17 52 40 74 36 36 116 81 116 65 0 -6 11 0 24 13 20 19 22 27 14
51 -12 33 3 85 38 140 13 21 24 39 24 42 0 2 -18 3 -40 2 -33 0 -41 -5 -51
-29 -6 -15 -27 -52 -45 -83 -19 -32 -30 -61 -27 -71 4 -10 2 -14 -5 -9 -6 3
-48 -30 -97 -79 -48 -47 -91 -85 -96 -85 -6 0 -7 -5 -3 -12 4 -6 3 -8 -4 -4
-6 3 -26 -3 -44 -14 -18 -11 -29 -20 -24 -20 5 0 3 -7 -4 -15 -9 -11 -15 -13
-20 -5 -5 8 -19 6 -48 -9 -79 -40 -182 -63 -312 -68 -160 -7 -260 15 -410 89
-91 45 -117 64 -196 143 -59 59 -110 121 -146 180 -43 71 -60 91 -81 93 -14 2
-28 -2 -32 -7z m1594 -144 c0 -21 -1 -21 -9 -2 -12 28 -12 37 0 30 6 -3 10
-16 9 -28z m-1375 -103 c5 -14 4 -15 -9 -4 -17 14 -19 20 -6 20 5 0 12 -7 15
-16z m1306 12 c0 -2 -7 -7 -16 -10 -8 -3 -12 -2 -9 4 6 10 25 14 25 6z m-370
-236 c0 -5 -5 -10 -11 -10 -5 0 -7 5 -4 10 3 6 8 10 11 10 2 0 4 -4 4 -10z"/>
<path d="M714 12253 c20 -52 80 -135 146 -203 89 -91 194 -156 318 -197 79
-26 100 -28 232 -28 124 0 156 3 220 23 146 46 288 137 379 243 38 45 101 148
101 166 0 29 -28 10 -53 -34 -33 -61 -115 -158 -170 -201 -257 -205 -608 -225
-880 -50 -80 52 -183 159 -227 236 -23 40 -41 62 -54 62 -13 0 -16 -5 -12 -17z"/>
<path d="M1160 12250 c32 -25 39 -25 33 0 -4 14 -14 20 -32 20 l-26 0 25 -20z"/>
<path d="M1231 12244 c-9 -21 -7 -26 13 -40 14 -8 35 -16 48 -18 13 -1 29 -5
36 -9 6 -4 26 -8 44 -7 18 0 54 0 81 0 26 1 65 7 86 15 41 14 129 60 145 75 5
5 -93 8 -217 8 l-225 0 -11 -24z m329 6 c0 -5 -7 -10 -16 -10 -8 0 -12 5 -9
10 3 6 10 10 16 10 5 0 9 -4 9 -10z m45 -9 c3 -5 1 -12 -5 -16 -5 -3 -10 1
-10 9 0 18 6 21 15 7z"/>
</g>
</svg>
